# xmcd
# 
# Track frame offsets:
#     150
#     19016
#     43233
#     56148
#     76082
#     94992
#     124374
#     181742
# 
# Disc length: 3189
# 
# Revision: 13
# Processed by: cddbd v1.5.2PL0 Copyright (c) Steve Scherf et al.
# Submitted via: fre:ac v1.0.27
# 
DISCID=650c7308
DTITLE=Fleetwood Mac 2 - Boston Blues [Disc 2]
DYEAR=2000
DGENRE=Blues
TTITLE0=World In Harmony
TTITLE1=Sandy Mary
TTITLE2=Loving Kind
TTITLE3=Only You
TTITLE4=Red Hot Mama
TTITLE5=I Can't Hold Out
TTITLE6=The Green Manalishi
TTITLE7=Encore Jam
EXTD=YEAR: 1970
EXTT0=
EXTT1=
EXTT2=
EXTT3=
EXTT4=
EXTT5=
EXTT6=
EXTT7=
PLAYORDER=
